<svg width="1400" height="420" viewBox="0 0 1400 420" fill="none" xmlns="http://www.w3.org/2000/svg">
  <defs>
    <linearGradient id="bg" x1="0" y1="0" x2="1400" y2="420" gradientUnits="userSpaceOnUse">
      <stop offset="0" stop-color="#0B1020"/>
      <stop offset="0.48" stop-color="#111A34"/>
      <stop offset="1" stop-color="#172554"/>
    </linearGradient>
    <radialGradient id="glow1" cx="0" cy="0" r="1" gradientUnits="userSpaceOnUse" gradientTransform="translate(1080 110) rotate(132) scale(360 260)">
      <stop stop-color="#60A5FA" stop-opacity="0.55"/>
      <stop offset="1" stop-color="#60A5FA" stop-opacity="0"/>
    </radialGradient>
    <radialGradient id="glow2" cx="0" cy="0" r="1" gradientUnits="userSpaceOnUse" gradientTransform="translate(280 330) rotate(-20) scale(360 210)">
      <stop stop-color="#A78BFA" stop-opacity="0.32"/>
      <stop offset="1" stop-color="#A78BFA" stop-opacity="0"/>
    </radialGradient>
    <filter id="blur">
      <feGaussianBlur stdDeviation="18"/>
    </filter>
    <style>
      .title { font-family: Inter, ui-sans-serif, system-ui, -apple-system, BlinkMacSystemFont, "Segoe UI", sans-serif; font-size: 56px; font-weight: 800; letter-spacing: -1.6px; fill: #F8FAFC; }
      .subtitle { font-family: Inter, ui-sans-serif, system-ui, -apple-system, BlinkMacSystemFont, "Segoe UI", sans-serif; font-size: 22px; font-weight: 500; fill: #CBD5E1; }
      .meta { font-family: Inter, ui-sans-serif, system-ui, -apple-system, BlinkMacSystemFont, "Segoe UI", sans-serif; font-size: 18px; font-weight: 600; fill: #93C5FD; }
      .chip { font-family: Inter, ui-sans-serif, system-ui, -apple-system, BlinkMacSystemFont, "Segoe UI", sans-serif; font-size: 16px; font-weight: 700; fill: #DBEAFE; }
      .small { font-family: Inter, ui-sans-serif, system-ui, -apple-system, BlinkMacSystemFont, "Segoe UI", sans-serif; font-size: 15px; font-weight: 600; fill: #94A3B8; }
    </style>
  </defs>
  <rect width="1400" height="420" rx="34" fill="url(#bg)"/>
  <rect width="1400" height="420" rx="34" fill="url(#glow1)"/>
  <rect width="1400" height="420" rx="34" fill="url(#glow2)"/>
  <g opacity="0.22">
    <path d="M80 315 C250 230, 360 365, 535 260 S860 150, 1060 250 S1230 310, 1320 210" stroke="#93C5FD" stroke-width="2" fill="none"/>
    <path d="M80 250 C280 120, 410 270, 600 178 S920 90, 1115 170 S1245 245, 1330 135" stroke="#A78BFA" stroke-width="2" fill="none"/>
    <circle cx="280" cy="210" r="5" fill="#60A5FA"/>
    <circle cx="515" cy="260" r="5" fill="#A78BFA"/>
    <circle cx="725" cy="150" r="5" fill="#60A5FA"/>
    <circle cx="985" cy="215" r="5" fill="#A78BFA"/>
    <circle cx="1185" cy="265" r="5" fill="#60A5FA"/>
  </g>
  <g transform="translate(90 66)">
    <rect x="0" y="0" width="268" height="42" rx="21" fill="#1E3A8A" opacity="0.62"/>
    <text x="22" y="27" class="meta">GitHub @Beverly621</text>
  </g>
  <g transform="translate(90 135)">
    <text class="title">Enterprise Multi-Tool Agent Platform</text>
    <text y="52" class="subtitle">RAG · SQL Agent · Tool Calling · Planner · Async Reports · RBAC · Guardrails · Tracing · Evaluation</text>
  </g>
  <g transform="translate(90 255)">
    <rect x="0" y="0" width="114" height="38" rx="19" fill="#1D4ED8" opacity="0.78"/>
    <text x="20" y="25" class="chip">FastAPI</text>
    <rect x="130" y="0" width="112" height="38" rx="19" fill="#312E81" opacity="0.78"/>
    <text x="151" y="25" class="chip">Next.js</text>
    <rect x="258" y="0" width="136" height="38" rx="19" fill="#0F766E" opacity="0.78"/>
    <text x="279" y="25" class="chip">pgvector</text>
    <rect x="410" y="0" width="92" height="38" rx="19" fill="#7C2D12" opacity="0.78"/>
    <text x="430" y="25" class="chip">Redis</text>
    <rect x="518" y="0" width="94" height="38" rx="19" fill="#4C1D95" opacity="0.78"/>
    <text x="539" y="25" class="chip">Celery</text>
  </g>
  <g transform="translate(980 250)">
    <rect x="0" y="0" width="300" height="88" rx="22" fill="#020617" opacity="0.42" stroke="#334155"/>
    <text x="24" y="34" class="small">Portfolio engineering showcase</text>
    <text x="24" y="62" class="small">Enterprise-style AI Agent runtime</text>
  </g>
</svg>
